<svg width="256.00007" height="256.00002" xmlns="http://www.w3.org/2000/svg" version="1.1">
 <title id="title6870">Cloud</title>

 <metadata id="metadata5337">image/svg+xmlCloudJosh "Cheeseness" BushOriginally created for the official shirt for the 2014 Open Source Developers' Conference held at Griffith University.cloud2014-10-22</metadata>
 <g>
  <title>Layer 1</title>
  <ellipse stroke-width="0" stroke="#000" ry="126" rx="128.50001" id="svg_1" cy="141" cx="128.50007" fill="#ffffff"/>
  <g id="layer1">
   <path stroke-width="1px" fill-rule="nonzero" fill="#5B9BA2" clip-rule="nonzero" d="m103.29045,60.77221c-18.8823,0 -37.6499,7.7751 -51.0017,21.127c-8.4122,8.4121 -14.6043,18.9734 -18.0383,30.3583c-8.2539,1.5581 -16.0492,5.5866 -21.9931,11.5304c-7.7473,7.7473 -12.2573,18.6331 -12.2573,29.5895c0,10.9565 4.51,21.8458 12.2573,29.5931c7.7474,7.7473 18.6367,12.2573 29.5931,12.2573l187.4365,0c6.9935,0 13.9453,-2.8775 18.8904,-7.8224c4.9452,-4.9451 7.8227,-11.8971 7.8227,-18.8906c0,-6.9935 -2.8775,-13.9417 -7.8227,-18.8868c-4.9147,-4.9149 -11.8119,-7.784 -18.7617,-7.8193c-1.3562,-12.6709 -7.0967,-24.867 -16.1148,-33.8851c-10.3847,-10.3847 -24.9798,-16.4314 -39.666,-16.4314c-3.5656,0 -7.1233,0.3656 -10.6192,1.0539c-2.5582,-3.8175 -5.4715,-7.3951 -8.7235,-10.6469c-13.3518,-13.3519 -32.1193,-21.127 -51.0017,-21.127z" id="path10000"/>
  </g>
  <ellipse id="svg_3" cy="134" cx="108.00006" stroke="#000" fill="#33666C"/>
 </g>
</svg>