<svg width="100" height="101" xmlns="http://www.w3.org/2000/svg" version="1.1">
 <title id="title6870">Cloud</title>

 <metadata id="metadata5337">image/svg+xmlCloudJosh "Cheeseness" BushOriginally created for the official shirt for the 2014 Open Source Developers' Conference held at Griffith University.cloud2014-10-22</metadata>
 <g>
  <title>Layer 1</title>
  <ellipse fill="#535F75" stroke="#000" cx="124.50001" cy="104.49998" id="svg_3"/>
  <g stroke="null" id="svg_2">
   <ellipse stroke="#33666C" fill="#ffffff" cx="50" cy="50.5" id="svg_1" rx="44.5" ry="44.5" stroke-width="7"/>
   <g stroke="null" transform="matrix(0.404484 -0.00706029 0.00706029 0.404484 1.28974 2.89243)" id="layer1" stroke-width="0">
    <path stroke="#000000" id="path10000" d="m101.34738,73.546c-12.98158,0 -25.88431,5.34538 -35.06367,14.52481c-5.78339,5.78332 -10.04046,13.04421 -12.40133,20.87133c-5.67456,1.07119 -11.03382,3.84079 -15.12026,7.92715c-5.32627,5.32627 -8.42689,12.81026 -8.42689,20.34278c0,7.53259 3.10062,15.01899 8.42689,20.34526c5.32634,5.32627 12.81273,8.42689 20.34526,8.42689l128.86259,0c4.80803,0 9.58739,-1.97828 12.98715,-5.3779c3.39982,-3.39976 5.37811,-8.17926 5.37811,-12.98729c0,-4.80803 -1.97828,-9.58492 -5.37811,-12.98468c-3.37886,-3.37899 -8.12068,-5.3515 -12.89867,-5.37577c-0.93239,-8.71124 -4.87898,-17.09606 -11.07892,-23.29601c-7.13948,-7.13948 -17.17361,-11.29659 -27.27038,-11.29659c-2.45135,0 -4.89727,0.25135 -7.3007,0.72456c-1.75876,-2.62453 -3.76166,-5.08413 -5.99741,-7.31974c-9.17936,-9.17943 -22.08202,-14.52481 -35.06367,-14.52481l0.00001,0.00001z" clip-rule="nonzero" fill="#84D3DB" fill-rule="nonzero" stroke-width="1px"/>
   </g>
  </g>
 </g>
</svg>